<svg xmlns="http://www.w3.org/2000/svg" xmlns:xlink="http://www.w3.org/1999/xlink" version="1.1" width="256" height="256" viewBox="0 0 256 256" xml:space="preserve">

<defs>
</defs>
<g style="stroke: none; stroke-width: 0; stroke-dasharray: none; stroke-linecap: butt; stroke-linejoin: miter; stroke-miterlimit: 10; fill: none; fill-rule: nonzero; opacity: 1;" transform="translate(1.4065934065934016 1.4065934065934016) scale(2.81 2.81)" >
	<path d="M 44.999 32.958 c -6.641 0 -12.042 5.402 -12.042 12.042 c 0 6.641 5.401 12.044 12.042 12.044 S 57.041 51.642 57.041 45 C 57.041 38.358 51.639 32.958 44.999 32.958 z" style="stroke: none; stroke-width: 1; stroke-dasharray: none; stroke-linecap: butt; stroke-linejoin: miter; stroke-miterlimit: 10; fill: rgb(0,0,0); fill-rule: nonzero; opacity: 1;" transform=" matrix(1 0 0 1 0 0) " stroke-linecap="round" />
	<path d="M 57.593 19.443 H 32.407 v -0.001 c -7.148 0 -12.962 5.815 -12.962 12.962 V 57.59 c -0.001 7.149 5.814 12.964 12.962 12.964 h 25.186 c 7.148 0 12.964 -5.814 12.964 -12.962 V 32.406 C 70.557 25.257 64.742 19.443 57.593 19.443 z M 44.999 61.488 c -9.092 0 -16.487 -7.396 -16.487 -16.487 c 0 -9.092 7.396 -16.487 16.487 -16.487 s 16.487 7.396 16.487 16.487 C 61.485 54.092 54.089 61.488 44.999 61.488 z M 60.939 31.281 c -1.84 0 -3.332 -1.492 -3.332 -3.332 c 0 -1.84 1.492 -3.332 3.332 -3.332 s 3.332 1.492 3.332 3.332 C 64.271 29.789 62.779 31.281 60.939 31.281 z" style="stroke: none; stroke-width: 1; stroke-dasharray: none; stroke-linecap: butt; stroke-linejoin: miter; stroke-miterlimit: 10; fill: rgb(0,0,0); fill-rule: nonzero; opacity: 1;" transform=" matrix(1 0 0 1 0 0) " stroke-linecap="round" />
	<path d="M 0 0 v 90 h 90 V 0 H 0 z M 75.001 57.591 c 0 9.598 -7.808 17.406 -17.408 17.406 H 32.407 c -9.598 0 -17.406 -7.808 -17.406 -17.406 V 32.406 c 0 -9.598 7.808 -17.406 17.406 -17.406 h 25.186 c 9.599 0 17.408 7.808 17.408 17.406 V 57.591 z" style="stroke: none; stroke-width: 1; stroke-dasharray: none; stroke-linecap: butt; stroke-linejoin: miter; stroke-miterlimit: 10; fill: rgb(0,0,0); fill-rule: nonzero; opacity: 1;" transform=" matrix(1 0 0 1 0 0) " stroke-linecap="round" />
</g>
</svg>